<?xml version="1.0" standalone="no"?>
<!DOCTYPE svg PUBLIC "-//W3C//DTD SVG 20010904//EN"
 "http://www.w3.org/TR/2001/REC-SVG-20010904/DTD/svg10.dtd">
<svg version="1.0" xmlns="http://www.w3.org/2000/svg"
 width="1200.000000pt" height="1215.000000pt" viewBox="0 0 1200.000000 1215.000000"
 preserveAspectRatio="xMidYMid meet">

<g transform="translate(0.000000,1215.000000) scale(0.100000,-0.100000)"
fill="#000000" stroke="none">
<path d="M5955 11519 c-1549 -69 -2996 -789 -3995 -1989 -698 -839 -1124
-1847 -1246 -2950 -22 -197 -30 -750 -15 -962 55 -746 246 -1435 582 -2098
299 -590 664 -1076 1164 -1547 668 -630 1513 -1091 2415 -1317 877 -221 1789
-222 2668 -6 814 201 1563 582 2222 1130 161 134 547 519 680 680 759 913
1191 1980 1280 3159 13 173 13 596 0 776 -110 1504 -817 2884 -1973 3849 -839
700 -1859 1134 -2943 1251 -135 14 -547 36 -629 33 -22 0 -116 -4 -210 -9z
m452 -39 c260 -11 445 -29 673 -66 1696 -272 3178 -1344 3979 -2876 635 -1213
790 -2640 430 -3963 -95 -347 -205 -637 -374 -980 -276 -562 -597 -1009 -1044
-1456 -289 -288 -524 -481 -846 -694 -1413 -936 -3138 -1164 -4760 -630 -427
141 -946 398 -1320 653 -704 480 -1284 1105 -1699 1831 -338 590 -564 1243
-661 1916 -67 463 -74 981 -19 1445 197 1673 1172 3173 2629 4047 787 472
1665 735 2580 773 99 4 185 7 190 8 6 1 114 -3 242 -8z"/>
<path d="M5950 11280 c-1164 -59 -2242 -481 -3140 -1229 -139 -116 -439 -409
-558 -544 -748 -852 -1185 -1856 -1304 -2997 -17 -167 -17 -843 0 -1000 56
-504 159 -947 320 -1368 l35 -93 22 21 21 20 33 -83 c50 -124 210 -446 291
-587 239 -414 500 -753 849 -1100 279 -278 499 -458 811 -665 1101 -729 2438
-1011 3747 -790 503 85 964 234 1415 456 239 118 364 190 572 326 509 333 946
744 1312 1230 836 1112 1189 2505 988 3898 -73 509 -231 1023 -460 1495 -124
254 -209 403 -360 630 -389 585 -869 1065 -1454 1454 -282 188 -518 318 -810
446 -80 34 -147 64 -149 66 -2 2 4 12 13 23 17 18 14 20 -86 59 -321 124 -723
229 -1085 282 -308 45 -726 65 -1023 50z m355 -462 c3 -35 7 -198 8 -363 l2
-300 -27 -58 c-50 -106 -134 -154 -252 -145 -116 10 -181 64 -218 180 -19 62
-23 116 -42 610 l-4 116 84 7 c47 4 87 5 90 2 3 -2 9 -135 15 -293 11 -353 14
-384 42 -426 18 -26 31 -34 60 -36 32 -3 39 1 57 30 18 30 20 49 19 193 0 88
-4 243 -8 345 -4 102 -6 188 -4 193 2 4 42 7 88 7 l83 0 7 -62z m545 17 l55
-6 65 -319 c35 -176 67 -314 71 -307 3 7 23 138 44 292 21 154 41 284 45 288
4 4 40 1 80 -9 70 -16 72 -17 67 -43 -3 -14 -38 -217 -77 -451 -40 -234 -73
-426 -74 -427 -6 -7 -156 32 -159 41 -2 6 -30 151 -62 323 -33 172 -60 311
-62 309 -2 -1 -24 -137 -49 -302 -25 -164 -47 -300 -48 -301 -2 -2 -150 18
-152 20 -2 2 152 896 155 905 1 1 11 0 24 -2 12 -3 47 -8 77 -11z m-1876 -187
c10 -85 8 -98 -12 -98 -10 0 -43 -7 -72 -16 -96 -28 -150 -104 -150 -210 0
-88 55 -248 114 -327 31 -43 77 -67 127 -67 73 0 74 4 37 119 -31 99 -33 102
-57 95 -50 -13 -53 -10 -76 58 l-23 67 113 35 c62 20 115 36 118 36 7 0 147
-433 147 -454 0 -21 -90 -72 -173 -97 -183 -57 -339 22 -433 216 -105 220 -97
443 21 573 65 73 169 121 261 122 l51 0 7 -52z m2799 -29 c37 -13 67 -28 67
-34 0 -12 -278 -833 -288 -851 -5 -9 -30 -4 -89 18 l-81 29 43 127 c24 70 86
253 138 407 118 347 114 338 130 332 6 -3 42 -16 80 -28z m467 -186 c78 -35
81 -37 75 -65 -4 -16 -53 -169 -111 -340 -57 -171 -103 -313 -101 -314 1 -1
94 126 206 282 113 157 208 287 212 290 4 2 43 -17 88 -42 73 -42 80 -48 68
-63 -8 -9 -143 -170 -301 -358 l-288 -342 -88 44 -88 44 64 248 c35 136 88
339 116 451 29 111 55 202 59 202 4 0 44 -16 89 -37z m-3929 -442 c120 -216
219 -396 219 -400 0 -14 -138 -74 -151 -65 -25 14 -319 255 -382 312 -113 102
-113 102 -60 17 56 -90 238 -411 248 -436 4 -12 -10 -26 -55 -53 -34 -20 -65
-36 -70 -36 -7 0 -441 778 -444 796 -1 9 114 82 131 83 11 1 305 -238 446
-362 l68 -60 -84 134 c-90 144 -232 397 -226 403 12 11 125 65 132 63 5 -1
107 -179 228 -396z m4812 -87 c78 -59 148 -113 156 -120 12 -11 8 -22 -29 -71
-24 -32 -45 -60 -46 -62 -2 -2 -29 16 -61 39 -32 24 -72 54 -89 67 l-30 22
-39 -52 c-21 -29 -49 -66 -62 -84 l-24 -31 80 -62 c45 -33 81 -63 81 -66 0
-17 -84 -113 -94 -107 -6 4 -44 31 -84 61 -40 30 -74 53 -76 51 -37 -46 -136
-184 -136 -190 0 -5 40 -39 89 -76 l90 -67 -41 -58 c-23 -33 -45 -61 -48 -63
-10 -6 -331 236 -328 246 4 9 542 728 546 729 1 0 67 -48 145 -106z m-5602
-395 c200 -160 364 -295 364 -299 0 -5 -30 -31 -67 -59 l-67 -51 -82 69 -83
69 -26 -19 c-14 -10 -42 -33 -62 -51 l-37 -33 54 -95 54 -95 -62 -57 c-34 -31
-65 -57 -68 -58 -6 0 -444 820 -444 833 0 8 146 135 156 136 4 1 170 -130 370
-290z m3069 55 c254 -27 492 -78 740 -159 l142 -47 21 21 22 20 75 -30 c115
-45 382 -180 505 -254 231 -140 442 -304 649 -505 583 -566 948 -1287 1067
-2105 30 -209 38 -645 15 -862 -47 -443 -152 -815 -338 -1203 -92 -192 -141
-278 -255 -451 -230 -348 -564 -693 -908 -941 -498 -358 -1082 -583 -1710
-660 -171 -20 -685 -18 -855 5 -424 57 -793 168 -1165 352 -771 381 -1378
1016 -1716 1795 l-68 155 34 35 33 35 -44 131 c-127 385 -178 705 -179 1124 0
343 25 557 100 866 333 1361 1469 2415 2850 2647 332 56 656 66 985 31z m3253
-347 c29 -60 36 -141 16 -194 -18 -47 -74 -107 -130 -138 -55 -30 -124 -38
-182 -22 -26 7 -27 6 -21 -18 12 -49 -8 -95 -109 -247 l-102 -153 -26 30 c-88
103 -92 111 -76 141 8 16 43 65 77 109 100 128 116 183 66 224 -14 12 -33 -2
-147 -109 l-130 -123 -63 62 -64 63 337 314 336 314 95 -98 c60 -63 105 -119
123 -155z m-7001 -88 l142 -252 136 -115 c74 -64 137 -117 139 -118 2 -2 -23
-35 -55 -73 -50 -59 -61 -68 -74 -57 -8 7 -62 53 -120 102 -58 50 -116 98
-130 107 -14 9 -140 59 -280 113 -140 53 -261 99 -268 103 -10 5 2 27 43 79
31 40 58 72 59 72 8 0 216 -95 298 -136 l92 -46 -35 43 c-19 24 -77 102 -128
173 l-93 128 63 64 c35 35 64 64 66 64 1 0 66 -113 145 -251z m7352 -435 c87
-30 186 -153 190 -236 1 -30 -3 -33 -64 -59 l-65 -27 -11 36 c-37 126 -113
168 -185 104 -32 -28 -32 -30 -39 -153 -10 -189 -49 -258 -178 -317 -158 -72
-343 44 -400 251 l-11 39 64 29 c36 16 68 29 72 29 5 0 16 -28 26 -62 24 -81
78 -138 131 -138 79 0 116 54 116 169 0 137 31 225 101 285 74 63 163 81 253
50z m-7641 -269 c202 -115 367 -212 367 -216 0 -4 -19 -38 -41 -74 -38 -59
-45 -65 -68 -60 -61 12 -594 95 -597 92 -2 -2 110 -65 249 -141 138 -76 254
-140 256 -142 4 -4 -60 -144 -65 -144 -4 0 -788 451 -793 456 -8 8 63 144 74
144 7 0 153 -22 325 -50 173 -27 315 -48 317 -46 2 1 -102 58 -229 126 -128
68 -250 133 -270 145 l-37 21 42 67 41 66 31 -17 c16 -10 195 -112 398 -227z
m8075 -388 c17 -39 32 -75 32 -78 0 -7 -820 -392 -825 -387 -1 2 -18 37 -38
79 l-35 77 307 143 c168 78 351 164 406 190 55 26 105 48 110 48 6 1 25 -32
43 -72z m-8508 -422 c234 -31 430 -58 437 -60 8 -3 2 -28 -18 -82 -17 -43 -32
-79 -33 -81 -2 -1 -49 5 -106 13 -57 8 -104 14 -105 13 -8 -10 -46 -140 -43
-148 2 -6 41 -32 88 -59 94 -54 91 -45 59 -153 l-20 -67 -408 246 -408 247 28
85 c16 47 31 92 34 100 4 9 15 11 38 7 17 -3 223 -30 457 -61z m8746 -217 c39
-128 70 -234 68 -236 -1 -2 -36 -14 -77 -27 l-75 -23 -17 67 c-9 37 -19 72
-23 78 -5 8 -116 -23 -357 -98 -192 -59 -355 -107 -361 -105 -10 4 -60 154
-53 161 2 2 162 51 354 110 193 59 353 109 357 111 4 3 -4 37 -18 76 -13 39
-21 74 -18 77 8 8 107 39 129 40 18 1 29 -26 91 -231z m-8981 -534 c242 -32
442 -59 444 -60 9 -7 -23 -166 -34 -170 -7 -3 -79 4 -161 15 -82 11 -162 21
-179 23 l-29 3 -13 -89 c-7 -49 -12 -90 -11 -91 2 -1 86 -13 188 -26 l185 -24
-4 -85 c-2 -47 -5 -86 -6 -88 -4 -5 -895 112 -906 118 -9 6 0 142 11 161 6 10
44 8 177 -10 92 -11 173 -21 179 -21 9 0 39 169 31 177 -2 1 -84 13 -183 26
l-179 23 3 35 c5 65 23 139 35 139 7 0 210 -25 452 -56z m9124 -57 c7 -43 11
-80 9 -81 -1 -2 -92 -38 -200 -81 -109 -43 -197 -80 -195 -81 1 -1 97 -12 213
-25 l211 -22 7 -85 c4 -46 5 -86 3 -88 -2 -3 -131 25 -286 61 l-282 66 -163
-20 c-89 -12 -170 -21 -178 -21 -12 0 -17 20 -25 83 -5 45 -6 84 -2 87 4 3 81
14 171 24 l163 19 265 132 c172 87 267 129 271 121 3 -6 12 -46 18 -89z
m-9060 -1361 c80 -129 80 -304 0 -433 -21 -34 -23 -35 -37 -17 -57 75 -90 208
-73 300 12 63 64 184 80 184 5 0 19 -15 30 -34z m8611 -29 c41 -86 54 -165 41
-239 -10 -59 -45 -145 -74 -182 -14 -19 -16 -18 -40 30 -57 112 -70 207 -41
305 18 61 63 149 76 149 5 0 22 -28 38 -63z m-8275 -234 c4 -10 10 -72 13
-139 5 -138 -14 -235 -68 -349 -29 -61 -128 -205 -141 -205 -11 0 -18 27 -30
120 -26 206 33 401 166 549 42 46 50 49 60 24z m7930 -24 c134 -148 193 -343
166 -551 -17 -130 -20 -132 -75 -62 -97 124 -154 269 -163 419 -6 90 11 235
27 235 4 0 24 -18 45 -41z m-8680 -66 c215 -90 371 -266 448 -508 40 -127 40
-128 9 -120 -54 12 -198 91 -274 148 -130 98 -223 230 -277 393 -40 120 -40
128 2 119 17 -4 59 -19 92 -32z m9495 20 c0 -10 -15 -61 -33 -115 -61 -176
-172 -320 -324 -421 -77 -51 -231 -123 -241 -113 -9 10 35 154 73 233 95 203
240 337 445 409 79 28 80 29 80 7z m-8534 -605 c34 -107 43 -261 21 -364 -16
-76 -63 -196 -98 -254 l-21 -34 -19 37 c-51 98 -76 323 -49 440 22 98 102 257
130 257 5 0 21 -37 36 -82z m7564 -33 c16 -33 37 -87 45 -120 18 -68 21 -224
6 -301 -12 -61 -49 -175 -61 -188 -12 -12 -86 140 -112 231 -39 139 -28 329
27 460 l16 38 25 -30 c14 -16 38 -57 54 -90z m-8323 -121 c248 -51 429 -198
557 -451 20 -40 36 -77 36 -83 0 -15 -53 -5 -165 31 -154 49 -257 112 -363
221 -75 77 -152 198 -176 276 -9 27 4 28 111 6z m9077 -6 c-3 -13 -18 -45 -32
-73 -95 -191 -272 -344 -480 -416 -59 -21 -184 -50 -190 -45 -7 8 54 127 103
202 125 187 314 310 535 347 62 11 72 8 64 -15z m-7979 -462 c43 -46 60 -111
60 -226 -1 -78 -5 -106 -26 -155 l-25 -60 96 0 c109 0 187 -21 259 -69 164
-112 80 -221 -169 -221 -93 0 -111 3 -164 28 -32 15 -60 27 -61 27 -2 0 1 -17
7 -37 34 -122 -48 -346 -144 -398 -37 -20 -37 -20 -65 1 -77 55 -107 232 -64
373 12 38 26 73 31 76 24 15 7 23 -27 13 -98 -27 -272 18 -357 93 -52 46 -62
70 -46 108 35 86 277 120 412 59 l53 -25 0 106 c1 86 5 117 23 163 42 104 106
178 156 178 10 0 33 -15 51 -34z m6861 18 c38 -18 84 -82 116 -163 18 -46 22
-76 23 -163 0 -60 1 -108 3 -108 1 0 13 7 25 14 12 8 49 22 82 30 164 43 365
-13 365 -103 0 -37 -85 -114 -156 -141 -90 -34 -172 -45 -238 -34 -51 10 -71
5 -46 -11 21 -13 50 -138 50 -214 0 -230 -119 -318 -219 -162 -57 88 -86 215
-71 306 4 28 7 51 5 53 -2 2 -20 -5 -42 -16 -106 -54 -270 -54 -375 -1 -100
51 -72 136 66 204 91 45 184 62 264 49 l59 -10 -24 53 c-13 29 -29 82 -34 118
-19 118 23 274 81 302 31 16 26 16 66 -3z m-5998 -1091 c22 -43 50 -112 62
-153 22 -83 36 -259 23 -303 l-9 -29 -74 79 c-116 122 -179 243 -201 384 -11
70 -6 198 8 236 11 27 142 -120 191 -214z m5245 161 c10 -65 1 -196 -19 -264
-35 -119 -137 -276 -230 -354 l-31 -25 -6 55 c-14 139 29 329 104 456 44 76
146 191 163 185 6 -2 15 -26 19 -53z m-4777 -449 c75 -74 98 -106 136 -182 43
-85 96 -265 87 -292 -8 -22 -134 65 -219 149 -61 60 -97 106 -123 157 -42 81
-77 204 -77 270 l0 44 53 -28 c28 -15 93 -68 143 -118z m4284 -22 c-34 -124
-83 -207 -180 -303 -73 -73 -206 -168 -218 -156 -7 8 27 153 52 220 55 146
154 269 285 357 l76 51 3 -46 c2 -26 -6 -80 -18 -123z m-5121 -8 c35 -9 101
-33 145 -54 99 -46 255 -160 234 -172 -31 -17 -187 -39 -283 -39 -190 0 -355
63 -510 194 -25 21 -28 27 -15 36 16 10 97 35 140 43 61 11 229 6 289 -8z
m6161 -17 l75 -24 -54 -42 c-82 -65 -178 -118 -266 -148 -129 -43 -333 -44
-479 -3 l-38 11 23 25 c66 70 247 168 367 198 89 23 277 14 372 -17z m-4772
-217 c90 -46 194 -198 208 -304 l7 -47 42 39 c75 69 186 111 291 111 127 0
167 -56 105 -151 -64 -99 -181 -174 -302 -193 l-36 -6 36 -38 c72 -76 117
-209 109 -320 -5 -76 -26 -102 -78 -102 -95 0 -245 182 -258 313 -2 26 -7 47
-9 47 -3 0 -27 -20 -55 -44 -104 -95 -321 -137 -387 -75 -85 80 112 288 298
314 l47 6 -40 42 c-103 108 -148 336 -81 403 29 29 54 30 103 5z m3107 -5 c67
-67 23 -290 -79 -404 l-36 -39 56 -11 c152 -31 304 -163 304 -264 0 -28 -6
-41 -23 -53 -82 -53 -289 -7 -394 89 -22 20 -43 36 -45 36 -3 0 -8 -22 -10
-50 -7 -70 -58 -166 -121 -229 -67 -66 -91 -80 -139 -81 -30 0 -41 6 -55 26
-54 83 -4 299 91 396 40 40 41 40 -39 53 -103 17 -261 141 -286 223 -21 73 22
112 125 112 106 0 232 -49 297 -116 l33 -34 18 72 c30 118 114 234 201 277 54
27 73 26 102 -3z m-3732 -192 c82 -19 242 -84 241 -99 0 -17 -74 -53 -174 -87
-88 -29 -106 -32 -230 -32 -149 -1 -224 16 -343 76 -57 28 -59 30 -39 44 39
27 166 83 222 98 75 20 234 20 323 0z m4579 -3 c64 -17 177 -66 227 -100 11
-7 0 -16 -45 -39 -149 -75 -330 -100 -480 -67 -87 19 -190 56 -243 88 l-34 20
54 28 c62 32 156 66 220 78 81 16 221 12 301 -8z m-2358 -394 c50 -38 70 -81
70 -148 1 -72 -33 -127 -96 -158 -151 -73 -313 69 -254 223 31 81 92 119 182
114 49 -3 69 -10 98 -31z"/>
<path d="M3191 9580 c9 -14 55 -91 103 -172 96 -162 88 -157 154 -100 l33 29
-58 49 c-32 27 -101 87 -153 134 -52 47 -88 74 -79 60z"/>
<path d="M4980 7700 l0 -90 -298 0 c-164 0 -468 -3 -675 -7 l-377 -6 0 -379 0
-378 65 0 65 0 -35 -49 c-52 -72 -112 -206 -137 -307 -18 -73 -22 -118 -22
-254 -1 -191 13 -258 89 -419 140 -294 379 -491 706 -582 l84 -24 918 -3 917
-3 0 81 0 80 50 0 50 0 0 -80 0 -80 1226 0 1227 0 -7 77 c-3 42 -6 219 -6 395
l0 318 -175 0 -175 0 0 415 0 415 174 0 174 0 7 103 c3 56 5 233 3 392 l-3
290 -172 3 -173 2 0 90 0 90 -430 0 -430 0 0 -90 0 -90 -895 0 -895 0 0 90 0
90 -425 0 -425 0 0 -90z m810 -38 l0 -89 473 -6 c259 -4 680 -7 935 -7 l462 0
0 95 0 95 390 0 390 0 0 -95 0 -95 170 0 170 0 0 -345 0 -345 -175 0 -175 0 0
-460 0 -460 175 0 175 0 0 -355 0 -355 -1177 2 -1178 3 -3 83 -3 83 -87 -3
-87 -3 -3 -83 -3 -83 -887 3 -887 3 -96 27 c-53 14 -130 41 -170 58 -268 117
-492 378 -571 668 -26 95 -31 327 -9 437 31 152 90 284 177 391 l44 54 -85 0
-85 0 0 345 0 345 675 0 675 0 0 90 0 90 385 0 385 0 0 -88z"/>
<path d="M5140 7530 l0 -90 -670 0 -670 0 0 -218 c0 -181 3 -221 16 -240 15
-21 21 -22 171 -22 l156 0 -59 -38 c-92 -60 -188 -171 -239 -277 -65 -134 -88
-240 -89 -410 -1 -167 9 -215 74 -350 87 -180 226 -317 415 -411 210 -104 151
-98 1078 -102 l807 -3 0 81 0 80 195 0 195 0 0 -62 c1 -109 -122 -98 1084 -98
l1056 0 0 223 c-1 169 -4 226 -14 240 -12 15 -33 17 -175 17 l-161 0 0 555 0
555 175 0 175 0 0 228 c0 209 -2 230 -18 245 -16 14 -43 17 -175 17 l-157 0 0
66 c0 111 19 104 -275 104 l-254 0 -3 -87 -3 -88 -1050 0 -1050 0 -3 75 c-2
41 -8 80 -14 87 -8 10 -69 13 -264 13 l-254 0 0 -90z m70 -440 l0 -60 -200 0
-200 0 0 60 0 60 200 0 200 0 0 -60z m510 -110 l0 -170 85 0 85 0 0 -60 0 -60
-85 0 -85 0 0 -255 0 -256 -102 3 -103 3 -3 483 -2 482 105 0 105 0 0 -170z
m1890 85 l0 -85 85 0 85 0 0 -60 0 -60 -85 0 -85 0 0 -85 0 -85 85 0 85 0 0
-60 0 -60 -84 0 -85 0 -3 -297 -3 -298 -28 -57 c-32 -66 -87 -117 -167 -157
-84 -42 -146 -56 -250 -55 -145 1 -251 37 -337 117 -65 60 -94 116 -101 192
-4 59 -2 72 27 130 49 99 141 165 280 201 85 21 233 15 314 -13 l57 -20 0 419
0 418 105 0 105 0 0 -85z m-579 55 c121 -23 239 -107 285 -205 33 -70 33 -170
0 -242 -64 -137 -230 -222 -411 -210 -192 12 -331 112 -370 266 -62 239 201
446 496 391z m-1641 -195 l0 -65 -63 0 -63 0 47 -49 c45 -47 79 -120 79 -171
0 -48 -34 -126 -75 -169 -152 -163 -469 -159 -616 7 -36 41 -69 119 -69 162 0
51 34 124 79 171 l47 49 -63 0 -63 0 0 65 0 65 380 0 380 0 0 -65z m-370 -875
l0 -190 360 0 360 0 0 -60 0 -60 -373 0 c-398 0 -432 3 -497 50 -17 12 -40 40
-53 63 -20 38 -22 59 -25 215 l-4 172 116 0 116 0 0 -190z"/>
<path d="M7088 6236 c-99 -27 -158 -101 -158 -201 0 -72 18 -113 69 -157 48
-41 98 -58 172 -58 61 0 140 32 176 71 57 62 68 155 28 235 -28 55 -71 89
-141 110 -56 17 -84 17 -146 0z"/>
<path d="M6915 7025 c-5 -2 -22 -6 -37 -9 -39 -9 -98 -64 -119 -111 -29 -63
-26 -168 7 -233 42 -85 126 -126 212 -103 91 25 151 111 152 215 0 133 -63
222 -170 239 -19 3 -39 4 -45 2z"/>
<path d="M4955 6835 c-134 -47 -169 -256 -59 -356 119 -109 294 -13 294 161 0
98 -55 177 -138 200 -46 12 -48 12 -97 -5z"/>
<path d="M5200 4441 c-49 -4 -78 -9 -67 -13 20 -8 23 -48 5 -66 -14 -14 -68
-16 -68 -2 0 6 -4 10 -10 10 -6 0 -10 -36 -10 -89 0 -97 11 -115 53 -86 48 33
48 31 45 -216 -3 -197 -5 -232 -19 -242 -9 -7 -14 -18 -12 -24 6 -16 223 -19
223 -3 0 6 -7 13 -15 16 -13 5 -15 52 -15 340 0 303 2 334 17 343 14 8 15 12
4 25 -7 9 -21 15 -30 14 -9 -1 -54 -4 -101 -7z"/>
<path d="M5566 4415 c-67 -27 -109 -64 -137 -118 -61 -117 -12 -269 105 -329
28 -15 66 -23 122 -26 69 -4 89 -1 144 21 35 15 66 25 68 22 9 -8 -21 -77 -46
-107 -35 -42 -79 -58 -154 -58 -78 0 -142 27 -166 70 -9 16 -19 30 -22 30 -3
0 -22 -33 -42 -74 -36 -73 -37 -74 -17 -92 10 -9 19 -14 19 -11 0 3 30 -8 68
-26 61 -29 75 -32 167 -32 89 0 106 3 157 28 119 59 187 173 196 329 9 165
-58 304 -177 365 -56 30 -71 33 -144 33 -63 0 -95 -6 -141 -25z m208 -126 c21
-6 50 -22 63 -36 22 -21 24 -30 19 -66 -12 -73 -63 -107 -164 -107 -85 0 -126
29 -130 92 -3 39 1 51 25 78 40 45 112 60 187 39z"/>
<path d="M6229 4417 c-30 -13 -72 -36 -91 -51 -20 -14 -40 -26 -44 -25 -30 5
-23 -11 46 -111 40 -58 45 -62 48 -40 9 62 95 105 207 104 112 -1 156 -35 124
-96 -15 -27 -85 -58 -137 -58 -32 0 -49 6 -67 24 l-24 24 -3 -92 c-4 -109 3
-124 51 -100 60 30 191 1 206 -46 16 -50 -52 -114 -134 -125 -60 -8 -156 14
-218 51 -35 20 -43 30 -43 53 0 16 -7 34 -15 41 -12 10 -16 7 -25 -16 -6 -16
-22 -60 -37 -97 -28 -75 -26 -82 29 -103 18 -7 65 -25 103 -40 61 -24 84 -28
175 -28 114 -1 162 11 223 52 89 60 117 184 63 277 -15 24 -34 49 -44 54 -16
9 -15 11 5 33 95 101 28 279 -121 323 -78 23 -210 19 -277 -8z"/>
<path d="M6915 4420 c-110 -43 -166 -121 -167 -233 0 -108 60 -197 159 -233
21 -7 71 -13 111 -14 87 0 164 28 188 69 15 26 15 26 9 -14 -10 -69 -46 -126
-95 -153 -39 -21 -55 -23 -121 -20 -86 5 -136 28 -157 71 -7 15 -16 27 -21 27
-4 0 -22 -32 -41 -70 -37 -77 -35 -100 11 -110 13 -4 47 -17 74 -30 43 -21 65
-25 151 -25 96 0 104 2 170 35 123 63 185 180 185 351 0 169 -83 309 -210 354
-61 21 -184 19 -246 -5z m200 -131 c59 -15 85 -41 85 -85 0 -78 -59 -124 -156
-124 -64 0 -118 20 -133 48 -32 61 1 131 74 157 49 17 74 18 130 4z"/>
<path d="M9543 9151 c-51 -48 -93 -93 -93 -99 0 -18 66 -52 101 -52 79 0 165
92 152 162 -5 27 -45 78 -60 78 -4 -1 -50 -41 -100 -89z"/>
<path d="M1805 7498 c22 -13 101 -56 177 -96 l136 -72 20 60 c12 33 18 60 14
60 -11 0 -345 60 -367 66 -11 3 -2 -5 20 -18z"/>
<path d="M2642 3473 c-97 -48 -108 -192 -19 -255 45 -32 114 -35 156 -6 55 37
76 73 76 128 0 109 -115 181 -213 133z"/>
<path d="M9660 3468 c-54 -37 -75 -73 -75 -128 0 -55 21 -91 75 -127 92 -63
220 10 220 127 0 117 -128 190 -220 128z"/>
<path d="M4820 1892 c-103 -51 -108 -206 -8 -258 45 -24 112 -22 146 3 96 71
94 194 -4 250 -47 27 -87 29 -134 5z"/>
<path d="M7486 1888 c-130 -76 -77 -272 74 -272 84 0 144 60 144 144 0 113
-122 185 -218 128z"/>
</g>
</svg>
