<?xml version="1.0" standalone="no"?>
<!DOCTYPE svg PUBLIC "-//W3C//DTD SVG 20010904//EN"
 "http://www.w3.org/TR/2001/REC-SVG-20010904/DTD/svg10.dtd">
<svg version="1.0" xmlns="http://www.w3.org/2000/svg"
 width="1200.000000pt" height="1244.000000pt" viewBox="0 0 1200.000000 1244.000000"
 preserveAspectRatio="xMidYMid meet">

<g transform="translate(0.000000,1244.000000) scale(0.100000,-0.100000)"
fill="#000000" stroke="none">
<path d="M9396 12230 c-31 -105 -41 -187 -41 -360 0 -152 3 -186 23 -260 39
-143 94 -243 187 -336 67 -67 93 -85 157 -112 106 -44 167 -55 273 -50 68 4
106 12 155 33 187 79 188 79 305 79 90 0 120 -4 167 -22 74 -30 129 -68 199
-137 105 -105 146 -216 136 -372 -8 -115 -25 -157 -71 -180 -29 -13 -38 -14
-51 -3 -19 16 -19 38 1 108 24 82 16 199 -20 279 -110 243 -472 300 -650 102
-81 -90 -116 -193 -116 -342 l0 -82 -236 235 c-130 129 -234 226 -231 215 3
-11 9 -99 12 -195 l7 -175 526 -527 527 -528 185 0 185 0 -190 191 c-105 105
-181 188 -170 185 168 -48 337 -70 426 -57 210 33 357 137 455 323 71 137 111
382 85 530 -36 206 -152 419 -326 594 -99 99 -162 144 -293 209 -179 88 -343
131 -632 166 -392 47 -746 239 -947 515 l-21 28 -16 -54z"/>
<path d="M5390 11683 c-14 -2 -67 -15 -117 -28 -374 -98 -684 -342 -928 -730
-70 -112 -138 -252 -131 -271 6 -16 73 -18 446 -7 l243 6 -54 28 c-74 37 -176
66 -284 82 l-90 13 55 19 c283 95 554 301 742 566 61 85 141 230 167 302 11
29 9 30 -49 20z"/>
<path d="M6420 11685 c0 -4 20 -51 45 -104 75 -157 165 -282 305 -422 170
-171 321 -270 538 -354 l84 -32 -65 -7 c-92 -9 -209 -41 -291 -79 l-71 -32
180 -6 c302 -11 503 -10 510 2 8 12 -59 155 -122 258 -193 319 -455 556 -753
684 -118 50 -360 112 -360 92z"/>
<path d="M7415 11518 c129 -454 383 -800 756 -1028 58 -36 75 -50 54 -46 -16
4 -84 9 -150 12 -133 7 -253 -5 -382 -39 l-83 -21 0 -172 0 -172 63 5 c100 7
224 32 327 65 183 59 480 197 480 223 0 34 -76 239 -131 355 -164 343 -438
631 -726 762 -57 26 -198 78 -210 78 -3 0 -1 -10 2 -22z"/>
<path d="M4344 11471 c-171 -67 -310 -158 -453 -296 -196 -189 -345 -433 -440
-720 -64 -195 -68 -174 46 -227 257 -119 538 -199 751 -214 l90 -7 4 164 c2
90 3 165 2 167 0 1 -41 11 -90 22 -149 33 -330 45 -490 32 -76 -6 -140 -9
-142 -8 -2 2 26 20 61 40 245 137 478 395 623 691 49 101 134 335 134 370 0
21 -14 19 -96 -14z"/>
<path d="M835 11399 c-63 -12 -197 -56 -218 -72 -14 -10 77 -105 672 -694
l687 -681 29 86 c37 116 124 285 185 360 28 34 50 66 50 70 0 4 -179 185 -397
402 -410 407 -441 433 -573 487 -123 49 -300 66 -435 42z"/>
<path d="M466 11177 c-231 -240 -269 -618 -105 -1039 l42 -108 651 0 651 0
-595 595 c-327 327 -597 595 -599 595 -3 0 -23 -19 -45 -43z"/>
<path d="M8383 11109 c16 -247 113 -525 261 -749 65 -96 238 -290 260 -290 6
0 60 49 119 108 l108 108 -31 90 c-41 118 -116 270 -182 369 -103 156 -295
329 -482 435 l-59 33 6 -104z"/>
<path d="M3402 11106 c-235 -146 -404 -332 -532 -591 -77 -153 -129 -302 -159
-452 -28 -135 -45 -293 -34 -304 11 -11 223 -64 333 -83 338 -58 655 -42 880
45 42 16 98 43 125 60 47 30 48 32 30 46 -44 33 -179 94 -257 117 -229 66
-511 61 -810 -15 -42 -10 -84 -22 -93 -25 -9 -4 42 51 113 122 211 212 340
433 425 734 36 124 75 390 59 390 -5 0 -40 -20 -80 -44z"/>
<path d="M5869 11097 c-129 -87 -19 -274 120 -202 31 15 61 69 61 107 0 54
-66 118 -123 118 -13 0 -39 -10 -58 -23z"/>
<path d="M6395 11020 c-49 -11 -123 -31 -163 -46 l-73 -26 33 -21 c76 -46 239
-118 322 -142 159 -45 318 -42 439 9 l38 15 -17 33 c-46 90 -116 145 -222 178
-83 26 -233 26 -357 0z"/>
<path d="M5165 11005 c-85 -18 -153 -52 -202 -101 -46 -47 -89 -122 -76 -134
17 -16 106 -40 172 -46 169 -16 380 49 595 183 l49 31 -82 26 c-165 52 -336
68 -456 41z"/>
<path d="M7726 10649 c-33 -39 -34 -82 -2 -114 33 -33 67 -40 105 -20 57 29
66 91 22 136 -41 41 -90 40 -125 -2z"/>
<path d="M2524 10571 c-244 -208 -407 -519 -476 -911 -13 -74 -19 -522 -7
-534 14 -14 269 -28 429 -23 274 9 493 55 676 141 99 47 195 109 232 149 23
24 23 26 5 35 -10 5 -47 19 -83 30 -216 69 -471 61 -747 -23 -91 -28 -279
-106 -319 -132 -35 -23 -29 -7 17 45 223 253 369 674 369 1059 0 106 -10 223
-19 223 -4 0 -38 -27 -77 -59z"/>
<path d="M4042 10610 c-48 -45 -39 -113 18 -144 33 -17 38 -17 73 -3 60 26 74
85 31 136 -32 38 -87 43 -122 11z"/>
<path d="M4480 8978 c0 -989 4 -1593 10 -1663 76 -805 578 -1289 1383 -1331
468 -25 904 132 1178 424 195 207 314 473 366 816 15 99 17 278 20 1709 l4
1597 -1480 0 -1481 0 0 -1552z m2100 807 l0 -315 228 -2 227 -3 3 -227 2 -228
-222 -2 -223 -3 -3 -102 -3 -103 226 0 225 0 0 -245 0 -245 -222 -2 -223 -3
-3 -742 -2 -743 -192 0 -193 0 -262 262 -263 263 -240 -240 -240 -240 -175
175 -175 175 400 400 400 400 205 -205 205 -205 0 1023 0 1022 -435 0 -435 0
0 225 0 225 695 0 695 0 0 -315z"/>
<path d="M9080 10008 c-239 -259 -435 -474 -435 -477 0 -10 925 -921 934 -921
5 0 212 201 461 448 l451 447 -488 488 -489 487 -434 -472z"/>
<path d="M8225 10026 c-137 -26 -300 -93 -374 -154 l-23 -18 40 -27 c58 -41
165 -83 262 -104 64 -13 129 -18 268 -18 l182 0 134 140 c74 77 132 142 130
144 -2 2 -46 13 -96 23 -123 25 -423 33 -523 14z"/>
<path d="M1769 9912 c-109 -134 -182 -269 -239 -441 -62 -183 -75 -274 -75
-511 0 -214 8 -279 52 -464 l25 -109 98 7 c383 25 782 156 1010 331 61 48 180
168 180 183 0 17 -130 35 -240 35 -233 -1 -484 -83 -744 -245 -44 -27 -97 -63
-117 -79 -20 -16 -39 -29 -42 -29 -3 0 22 51 54 114 71 136 123 290 151 446
27 151 29 419 4 565 -19 114 -55 255 -65 254 -3 0 -27 -26 -52 -57z"/>
<path d="M470 9901 c33 -62 340 -356 665 -635 l160 -138 12 99 c6 55 19 128
28 164 38 145 126 338 217 472 l39 57 -566 0 c-555 0 -566 0 -555 -19z"/>
<path d="M2545 9675 c-35 -34 -34 -93 0 -125 56 -53 145 -15 145 62 0 52 -35
88 -85 88 -25 0 -44 -8 -60 -25z"/>
<path d="M8330 9368 c-47 -56 -90 -109 -97 -118 -10 -14 64 -92 520 -548 l532
-532 108 108 107 107 -543 543 -542 542 -85 -102z"/>
<path d="M10702 9233 c-110 -239 -167 -573 -143 -832 16 -178 51 -321 117
-486 4 -11 -37 23 -93 75 -284 270 -611 420 -913 420 -38 0 -72 -5 -75 -11 -8
-12 64 -124 125 -192 124 -140 372 -297 622 -393 97 -38 331 -108 395 -119
l42 -7 24 49 c59 115 126 345 152 518 19 127 19 364 0 480 -28 177 -87 343
-172 488 -24 42 -46 77 -47 77 -2 0 -17 -30 -34 -67z"/>
<path d="M3350 9218 c-51 -43 -199 -113 -296 -139 -46 -13 -83 -27 -82 -30 2
-4 95 -92 208 -196 l205 -190 3 149 c1 82 1 214 0 293 l-3 143 -35 -30z"/>
<path d="M10315 9111 c-77 -74 -151 -144 -164 -157 -24 -22 -24 -23 -7 -66 10
-23 40 -80 67 -126 l49 -84 -48 35 c-26 19 -78 53 -115 76 l-68 42 -57 -50
c-31 -27 -90 -83 -131 -124 l-74 -75 39 -11 c114 -32 445 -81 550 -81 28 0 34
5 43 33 45 140 77 446 64 617 l-8 105 -140 -134z"/>
<path d="M3510 8839 l0 -307 328 -324 c180 -178 360 -355 400 -393 l72 -68 0
299 0 299 -400 400 -400 400 0 -306z"/>
<path d="M1090 9046 c-162 -357 -170 -792 -22 -1232 22 -66 53 -147 69 -181
l28 -61 121 33 c343 95 648 252 847 435 43 40 77 75 75 79 -2 4 -43 44 -91 91
l-88 84 -72 -23 c-189 -61 -434 -219 -608 -391 -50 -50 -88 -82 -84 -73 24 63
59 181 77 267 19 87 22 131 22 311 0 232 -14 325 -75 520 -30 96 -34 102 -86
145 -86 69 -80 70 -113 -4z"/>
<path d="M7888 8688 l-307 -333 -1 -570 c0 -519 -2 -578 -19 -660 -11 -49 -22
-98 -26 -107 -7 -17 6 -18 191 -18 l199 0 572 572 571 571 -430 439 c-237 241
-434 438 -438 438 -3 0 -144 -150 -312 -332z"/>
<path d="M2880 8787 c-168 -202 -411 -345 -689 -405 l-83 -18 62 -57 61 -57
687 0 687 0 -320 320 c-176 176 -320 320 -320 320 0 0 -38 -46 -85 -103z"/>
<path d="M10365 8408 c-32 -18 -44 -40 -45 -79 -1 -94 130 -120 166 -32 32 77
-50 152 -121 111z"/>
<path d="M11199 8338 c-225 -351 -320 -789 -253 -1173 19 -110 18 -114 -13
-67 -159 235 -407 456 -627 557 -80 37 -191 70 -277 81 -44 6 -49 5 -49 -13 0
-30 73 -171 130 -252 104 -146 298 -316 503 -440 84 -50 351 -184 394 -196 20
-5 30 5 78 79 73 112 166 305 209 436 95 288 112 586 46 847 -23 89 -71 223
-81 223 -4 0 -31 -37 -60 -82z"/>
<path d="M1485 8306 c-31 -13 -55 -51 -55 -86 0 -10 12 -32 26 -49 20 -25 34
-31 64 -31 30 0 44 6 64 31 42 50 29 110 -29 134 -40 17 -33 17 -70 1z"/>
<path d="M632 8208 c-56 -170 -67 -244 -66 -448 0 -153 4 -203 23 -290 49
-229 147 -461 280 -663 55 -82 68 -96 85 -91 12 3 89 41 171 83 316 160 555
352 706 563 51 72 121 208 133 260 6 26 5 27 -31 21 -59 -8 -153 -32 -211 -54
-228 -84 -479 -294 -659 -554 -31 -44 -59 -83 -63 -88 -3 -4 -1 25 6 65 67
389 -29 818 -265 1185 -76 119 -73 119 -109 11z"/>
<path d="M2396 8098 c31 -29 206 -189 388 -355 l331 -303 597 0 598 0 0 63 0
62 -293 293 -292 292 -693 0 -694 0 58 -52z"/>
<path d="M11551 7394 c-287 -312 -450 -711 -451 -1104 l-1 -115 -62 120 c-135
260 -300 459 -493 593 -78 54 -287 142 -302 127 -3 -3 4 -43 16 -90 26 -108
93 -248 173 -367 85 -125 319 -359 469 -470 109 -81 210 -148 223 -148 13 0
196 222 252 306 229 341 330 725 282 1069 -25 175 -20 171 -106 79z"/>
<path d="M311 7283 c-19 -88 -25 -308 -12 -418 43 -336 221 -689 485 -963 l83
-85 59 40 c311 212 571 487 698 741 34 67 82 213 91 275 l6 48 -28 -7 c-60
-14 -232 -104 -309 -162 -173 -131 -330 -336 -449 -585 l-52 -109 -6 134 c-10
215 -64 422 -161 620 -82 168 -216 356 -339 476 l-54 53 -12 -58z"/>
<path d="M3230 7316 c0 -2 77 -72 171 -155 l172 -151 394 0 c373 0 395 1 388
18 -5 9 -10 79 -13 155 l-4 137 -554 0 c-305 0 -554 -2 -554 -4z"/>
<path d="M3375 6848 c-3 -7 -4 -951 -3 -2098 l3 -2085 1095 -5 1095 -5 70 -26
c85 -32 185 -82 242 -120 23 -16 44 -29 47 -29 3 0 6 754 6 1675 l0 1675 -45
0 c-141 0 -399 47 -554 102 -306 108 -563 304 -739 563 -60 89 -135 235 -158
308 l-18 57 -518 0 c-406 0 -520 -3 -523 -12z m612 -1433 c39 -159 72 -300 73
-313 0 -33 20 -16 20 17 0 23 83 374 131 554 l10 37 302 -2 302 -3 0 -90 0
-90 -97 -3 -98 -3 0 -104 0 -105 85 0 85 0 0 -95 0 -95 -85 0 -85 0 0 -110 0
-109 98 -3 97 -3 3 -92 3 -93 -201 0 -200 0 0 487 c0 267 -2 484 -5 481 -3 -3
-65 -220 -138 -484 l-133 -479 -83 0 -84 0 -143 495 c-79 272 -144 496 -144
498 0 1 48 1 107 0 l107 -3 73 -290z m1264 266 c105 -40 158 -125 159 -252 0
-103 -21 -161 -82 -222 -26 -26 -48 -51 -48 -55 0 -4 36 -101 80 -216 44 -115
80 -212 80 -217 0 -5 -46 -9 -102 -9 l-103 0 -85 228 -85 227 -3 -227 -2 -228
-100 0 -100 0 0 501 0 502 168 -5 c139 -4 176 -9 223 -27z m429 -471 l0 -500
-100 0 -100 0 0 500 0 500 100 0 100 0 0 -500z m-157 -728 l47 -21 0 -96 0
-95 -53 30 c-59 33 -103 38 -146 15 -33 -16 -41 -33 -41 -81 0 -53 23 -87 97
-145 141 -109 175 -153 193 -248 20 -104 -26 -241 -100 -302 -72 -60 -207 -75
-307 -34 l-43 17 0 98 0 97 47 -23 c107 -55 213 -14 213 81 0 46 -27 81 -113
143 -129 94 -172 155 -183 260 -12 109 34 231 107 284 70 52 190 60 282 20z
m-1163 -82 l0 -90 -80 0 -80 0 0 -410 0 -411 -97 3 -98 3 -3 408 -2 407 -75 0
-75 0 0 90 0 90 255 0 255 0 0 -90z m593 -403 c64 -270 117 -495 117 -499 0
-5 -45 -8 -100 -8 -114 0 -110 -4 -131 103 l-13 67 -101 0 -101 0 -13 -67
c-21 -105 -18 -103 -120 -103 -48 0 -90 2 -93 5 -3 3 46 224 108 493 63 268
114 490 114 495 0 4 48 7 108 7 l107 0 118 -493z"/>
<path d="M5060 5410 l0 -130 35 0 c75 0 125 53 125 133 0 84 -40 127 -120 127
l-40 0 0 -130z"/>
<path d="M4717 4190 c-11 -55 -57 -350 -57 -360 0 -6 29 -10 65 -10 46 0 65 4
65 13 0 7 -11 71 -25 142 -13 72 -28 157 -33 190 -8 57 -9 58 -15 25z"/>
<path d="M7490 6848 c0 -29 -102 -220 -170 -322 -255 -380 -673 -631 -1100
-661 -47 -3 -100 -8 -117 -11 l-33 -5 0 -1685 0 -1685 64 45 c35 25 92 59 127
75 136 64 77 61 1271 61 l1088 0 0 2100 0 2100 -565 0 c-445 0 -565 -3 -565
-12z m-970 -1553 l0 -405 105 0 106 0 -3 -92 -3 -93 -202 -3 -203 -2 0 500 0
500 100 0 100 0 0 -405z m550 48 c0 -197 5 -376 10 -398 11 -50 41 -75 90 -75
51 0 80 26 91 80 4 25 8 204 9 398 l0 352 101 0 101 0 -4 -412 c-3 -393 -4
-415 -24 -458 -43 -94 -133 -140 -274 -140 -106 0 -172 22 -224 73 -69 70 -69
73 -73 530 l-4 407 100 0 101 0 0 -357z m819 252 c23 -57 44 -118 47 -135 8
-39 20 -38 28 1 3 17 25 78 47 135 l42 104 109 0 108 0 -14 -32 c-7 -18 -55
-127 -106 -241 l-92 -209 111 -249 c61 -137 111 -254 111 -259 0 -6 -44 -10
-110 -10 l-111 0 -20 48 c-12 26 -36 91 -54 145 -33 99 -45 124 -45 95 0 -19
-72 -234 -89 -266 -11 -21 -18 -22 -116 -22 -75 0 -105 3 -105 12 0 7 45 121
100 254 55 134 100 247 100 252 0 5 -47 115 -104 245 l-104 237 113 0 113 0
41 -105z m-1223 -1397 l48 -293 28 200 c15 110 33 241 40 290 l13 90 132 3
132 3 5 -43 c11 -80 96 -906 96 -932 l0 -26 -99 0 -98 0 -6 58 c-3 31 -14 186
-23 344 -10 158 -20 286 -22 284 -2 -2 -9 -50 -17 -107 -8 -57 -33 -211 -57
-341 l-42 -238 -78 0 c-43 0 -78 1 -78 3 0 2 -22 113 -49 248 -27 134 -55 286
-62 336 -7 51 -14 91 -15 90 -2 -2 -8 -126 -14 -277 -6 -151 -13 -303 -16
-337 l-6 -63 -105 0 -106 0 6 53 c3 28 22 243 42 477 20 234 38 435 41 448 4
21 8 22 133 22 l128 0 49 -292z m1014 197 l0 -95 -100 0 -100 0 0 -105 0 -105
85 0 85 0 0 -95 0 -95 -85 0 -85 0 0 -110 0 -110 100 0 100 0 0 -95 0 -95
-200 0 -200 0 0 500 0 500 200 0 200 0 0 -95z m514 87 c6 -9 236 -968 236
-982 0 -6 -42 -10 -104 -10 l-104 0 -18 83 -19 82 -97 3 -97 3 -10 -38 c-5
-21 -13 -58 -18 -83 l-9 -45 -97 -3 c-69 -2 -97 1 -97 9 0 12 217 956 225 977
5 14 200 18 209 4z"/>
<path d="M8081 4210 c-1 -17 -47 -316 -56 -367 l-6 -33 66 0 c78 0 75 -12 40
167 -13 71 -28 155 -33 188 -5 33 -10 53 -11 45z"/>
<path d="M8740 4688 l0 -2158 -1132 -2 -1133 -3 -65 -23 c-144 -53 -240 -112
-346 -214 l-70 -68 -55 56 c-90 93 -200 160 -334 205 l-70 24 -1140 5 -1140 5
-3 2140 -2 2140 -130 -130 -130 -130 0 -2152 0 -2153 1223 0 c1301 0 1267 1
1363 -48 61 -31 111 -94 125 -158 l12 -54 294 2 294 3 22 66 c30 89 70 144
121 169 42 20 56 20 1294 20 l1252 0 0 2178 0 2177 -125 130 -124 130 -1
-2157z"/>
<path d="M10963 6763 c-32 -6 -63 -50 -63 -90 0 -68 81 -107 138 -67 55 38 48
119 -12 148 -19 9 -36 15 -38 15 -1 -1 -13 -4 -25 -6z"/>
<path d="M945 6636 c-31 -13 -55 -51 -55 -87 0 -34 53 -79 92 -79 87 0 120
115 45 160 -37 23 -42 24 -82 6z"/>
<path d="M11709 6386 c-326 -261 -537 -601 -613 -989 l-22 -109 -24 84 c-27
96 -93 266 -138 354 -82 163 -227 341 -350 432 -58 43 -160 102 -177 102 -3 0
-5 -32 -5 -70 0 -248 155 -577 413 -875 100 -116 248 -265 264 -265 21 0 226
175 318 272 210 220 347 461 410 721 31 125 51 325 39 385 l-9 43 -106 -85z"/>
<path d="M153 6199 c15 -330 138 -622 383 -911 82 -96 238 -238 343 -310 l75
-52 112 117 c278 290 451 581 515 867 18 84 26 250 12 250 -15 0 -129 -73
-190 -122 -203 -161 -366 -449 -465 -823 l-14 -50 -17 90 c-76 387 -321 764
-657 1009 -113 83 -104 89 -97 -65z"/>
<path d="M9070 5920 l0 -240 190 0 190 0 0 240 0 240 -190 0 -190 0 0 -240z"/>
<path d="M2500 5880 l0 -240 190 0 190 0 0 240 0 240 -190 0 -190 0 0 -240z"/>
<path d="M10373 5463 c-15 -69 -8 -292 11 -383 61 -284 190 -544 441 -884 13
-18 18 -16 119 38 411 217 715 555 834 926 27 86 62 240 62 276 0 10 -24 2
-80 -26 -280 -141 -535 -371 -690 -625 -53 -87 -122 -231 -146 -308 -21 -69
-29 -60 -37 45 -20 249 -134 568 -266 746 -51 69 -151 171 -208 210 l-32 23
-8 -38z"/>
<path d="M1545 5344 c-224 -183 -387 -557 -412 -947 -3 -53 -8 -95 -10 -93 -3
3 -24 51 -47 108 -124 305 -364 581 -666 768 -112 70 -244 133 -248 120 -7
-20 20 -143 53 -246 64 -195 174 -377 326 -538 110 -117 199 -190 338 -281 98
-64 284 -165 306 -165 13 0 160 220 223 335 98 180 173 375 208 545 28 131 23
440 -6 440 -4 0 -34 -21 -65 -46z"/>
<path d="M10940 5003 c-62 -22 -81 -103 -35 -148 55 -56 145 -16 145 63 0 27
-7 44 -22 59 -25 22 -64 34 -88 26z"/>
<path d="M985 4865 c-38 -37 -35 -95 6 -129 33 -28 59 -32 92 -14 34 18 46 39
47 81 0 78 -91 117 -145 62z"/>
<path d="M10236 4698 c-76 -205 -69 -498 20 -805 60 -208 199 -523 230 -523
27 0 213 65 311 109 362 163 639 415 788 716 52 106 101 233 92 241 -9 10
-230 -70 -337 -122 -304 -146 -550 -368 -716 -646 -43 -72 -54 -85 -49 -58 16
75 7 381 -14 504 -43 247 -149 475 -279 599 l-30 29 -16 -44z"/>
<path d="M1713 4593 c-121 -146 -187 -293 -234 -513 -18 -86 -22 -140 -23
-300 -1 -107 3 -222 7 -255 l8 -59 -49 81 c-162 269 -406 486 -707 629 -98 47
-317 124 -352 124 l-22 0 20 -57 c118 -345 414 -654 803 -838 109 -52 309
-124 382 -138 34 -7 27 -18 120 200 169 402 217 802 128 1083 -13 43 -29 82
-33 85 -5 3 -27 -16 -48 -42z"/>
<path d="M9947 3929 c-85 -178 -113 -343 -104 -609 8 -214 39 -398 103 -609
l25 -84 72 6 c183 14 433 85 622 177 281 136 478 312 624 555 l60 100 -29 3
c-53 6 -266 -37 -393 -78 -328 -106 -603 -294 -796 -544 -22 -29 -23 -30 -17
-6 88 327 98 629 30 870 -24 85 -97 244 -133 289 l-19 25 -45 -95z"/>
<path d="M2011 3891 c-39 -54 -92 -180 -118 -280 -35 -131 -43 -383 -19 -549
15 -102 53 -269 71 -315 4 -10 -50 40 -121 110 -223 223 -450 352 -759 433
-150 39 -365 70 -365 53 0 -5 16 -35 35 -67 139 -231 324 -404 567 -531 216
-113 457 -182 725 -210 l62 -6 15 51 c25 84 64 268 80 375 49 329 18 642 -83
850 -21 44 -45 88 -53 99 -14 18 -16 17 -37 -13z"/>
<path d="M2510 3600 l0 -240 190 0 190 0 0 240 0 240 -190 0 -190 0 0 -240z"/>
<path d="M9082 3553 l3 -238 188 -3 187 -2 0 240 0 240 -190 0 -190 0 2 -237z"/>
<path d="M10325 3362 c-64 -13 -88 -100 -40 -147 53 -54 145 -16 145 58 0 60
-48 100 -105 89z"/>
<path d="M9608 3323 c-9 -10 -25 -36 -36 -58 -40 -82 -42 -76 59 -186 50 -55
93 -98 95 -97 13 14 -56 276 -89 336 -13 22 -14 22 -29 5z"/>
<path d="M1657 3249 c-54 -31 -52 -126 4 -154 40 -21 63 -19 98 11 82 69 -10
196 -102 143z"/>
<path d="M2392 3168 c-92 -287 -58 -606 105 -973 24 -55 47 -107 50 -115 3 -8
-9 -1 -28 17 -51 47 -180 137 -262 182 -149 81 -323 141 -519 177 -99 18 -389
29 -471 17 l-58 -8 61 -72 c203 -240 517 -409 878 -475 95 -17 159 -21 339
-22 137 -1 226 3 232 9 16 16 34 318 26 450 -16 295 -68 516 -166 706 -39 75
-123 189 -146 196 -7 3 -23 -32 -41 -89z"/>
<path d="M9087 3053 c-4 -3 -7 -111 -7 -240 l0 -233 83 -69 c45 -39 532 -444
1082 -900 l1000 -830 214 0 214 -1 -64 70 c-35 38 -530 551 -1099 1140 l-1035
1069 -191 1 c-105 0 -194 -3 -197 -7z"/>
<path d="M2847 2972 l-47 -48 15 -44 c20 -55 52 -234 61 -336 15 -168 23 -107
23 179 1 163 0 297 -2 297 -1 0 -24 -22 -50 -48z"/>
<path d="M10570 2603 c-114 -11 -366 -66 -384 -83 -10 -10 270 -300 290 -300
50 0 334 269 398 378 6 9 -23 12 -131 10 -76 0 -154 -3 -173 -5z"/>
<path d="M9364 2189 c3 -19 11 -75 17 -125 l12 -92 45 -6 c56 -8 180 -6 209 2
19 6 4 21 -113 117 -188 153 -177 146 -170 104z"/>
<path d="M8732 2129 c-53 -165 -111 -534 -100 -638 3 -33 6 -36 53 -48 177
-46 419 -67 606 -53 269 21 506 96 701 222 l67 43 -122 99 -122 99 -175 -6
c-287 -9 -527 -78 -753 -215 -37 -22 -64 -36 -60 -29 5 7 36 55 71 107 34 52
82 136 106 185 51 104 102 243 93 252 -4 3 -85 8 -181 11 l-174 5 -10 -34z"/>
<path d="M8335 2119 c-45 -40 -146 -165 -201 -250 -99 -152 -193 -371 -260
-602 -43 -151 -51 -202 -33 -210 330 -135 521 -177 799 -177 285 0 503 57 730
190 l75 44 -65 29 c-311 140 -708 187 -1029 121 -62 -13 -233 -65 -301 -91 -8
-3 28 39 80 94 240 251 386 539 415 816 l7 67 -91 0 c-87 0 -92 -1 -126 -31z"/>
<path d="M2955 2113 c28 -118 148 -355 250 -497 30 -43 55 -79 55 -82 0 -2
-24 9 -52 26 -353 207 -825 264 -1256 151 -41 -11 -75 -21 -78 -23 -2 -2 30
-31 71 -63 274 -221 633 -330 1021 -312 135 7 312 34 424 64 79 22 79 20 55
207 -20 159 -56 329 -99 456 l-31 95 -184 3 -183 2 7 -27z"/>
<path d="M3533 2043 c17 -264 175 -567 433 -830 51 -52 86 -92 76 -88 -64 26
-169 58 -256 77 -89 20 -127 23 -326 23 -195 -1 -239 -4 -329 -23 -139 -31
-277 -75 -384 -125 -103 -47 -105 -40 33 -112 346 -178 775 -198 1208 -56 157
51 282 109 282 130 0 25 -63 234 -104 346 -104 284 -278 554 -447 695 -59 49
-62 50 -126 50 l-66 0 6 -87z"/>
<path d="M9139 2001 c-41 -41 -40 -90 2 -125 39 -33 82 -34 114 -2 33 33 40
67 20 105 -29 57 -91 66 -136 22z"/>
<path d="M2823 1926 c-22 -19 -28 -32 -28 -65 0 -56 30 -86 86 -86 81 0 117
88 60 146 -37 36 -79 38 -118 5z"/>
<path d="M1360 1343 c-547 -575 -555 -584 -553 -690 0 -60 19 -95 66 -123 41
-25 119 -26 172 -1 38 17 1015 864 1015 879 0 4 -31 27 -68 52 -93 62 -245
211 -240 236 4 23 121 74 230 100 43 11 78 22 78 25 0 3 -35 13 -77 22 -43 10
-87 20 -99 23 -18 5 -104 -81 -524 -523z"/>
<path d="M7765 1831 c-211 -101 -411 -298 -579 -571 -57 -92 -153 -276 -197
-379 l-23 -54 32 -27 c44 -37 229 -140 327 -183 109 -47 281 -102 390 -124
128 -25 436 -25 555 0 86 19 253 70 280 87 19 12 11 18 -125 99 -168 100 -364
175 -561 216 -175 36 -433 37 -601 1 -35 -7 -63 -12 -63 -10 0 1 41 32 91 69
330 245 542 558 584 863 9 65 1 66 -110 13z"/>
<path d="M4205 1784 c48 -325 285 -643 681 -912 17 -11 15 -12 -14 -8 -203 33
-422 31 -594 -3 -134 -27 -315 -89 -439 -151 -102 -51 -289 -168 -289 -180 0
-10 186 -68 275 -87 127 -26 390 -23 533 5 150 30 302 81 437 146 110 53 266
145 318 188 l27 23 -63 130 c-127 260 -258 449 -426 615 -58 58 -139 126 -178
153 -75 50 -199 111 -246 123 l-29 7 7 -49z"/>
<path d="M7065 1533 c-275 -58 -599 -336 -861 -738 l-59 -90 -3 133 -3 132
-109 0 -109 0 -3 -111 -3 -111 -57 83 c-172 252 -378 463 -572 584 -84 52
-250 115 -304 115 -39 0 -38 -7 11 -105 137 -275 386 -520 697 -684 92 -49 93
-49 59 -55 -19 -3 -81 -12 -139 -21 -227 -35 -435 -98 -625 -190 -146 -70
-261 -151 -350 -246 l-60 -64 83 -3 c231 -8 559 71 805 194 151 75 351 215
421 293 11 11 23 21 28 21 4 0 8 -81 8 -180 l0 -180 110 0 110 0 0 195 c0 107
4 195 8 195 4 0 26 -19 47 -41 60 -62 209 -175 310 -234 151 -89 357 -171 525
-209 158 -36 480 -61 480 -37 0 15 -163 165 -223 204 -209 139 -502 241 -822
287 -77 11 -144 22 -150 24 -5 1 36 26 90 55 245 128 468 329 610 549 46 72
115 210 115 231 0 11 -27 13 -65 4z"/>
<path d="M7643 1163 c-32 -6 -63 -50 -63 -90 0 -74 88 -110 146 -59 67 57 6
166 -83 149z"/>
<path d="M4375 1105 c-38 -37 -35 -95 6 -129 33 -28 59 -32 92 -14 34 18 46
39 47 81 0 51 -35 87 -85 87 -25 0 -44 -8 -60 -25z"/>
</g>
</svg>
