<?xml version="1.0" standalone="no"?>
<!DOCTYPE svg PUBLIC "-//W3C//DTD SVG 20010904//EN"
 "http://www.w3.org/TR/2001/REC-SVG-20010904/DTD/svg10.dtd">
<svg version="1.0" xmlns="http://www.w3.org/2000/svg"
 width="1200.000000pt" height="1200.000000pt" viewBox="0 0 1200.000000 1200.000000"
 preserveAspectRatio="xMidYMid meet">

<g transform="translate(0.000000,1200.000000) scale(0.100000,-0.100000)"
fill="#000000" stroke="none">
<path d="M5765 11943 c-397 -14 -847 -82 -1260 -188 -1475 -379 -2768 -1337
-3574 -2648 -978 -1588 -1150 -3547 -464 -5287 569 -1442 1696 -2620 3116
-3254 1453 -649 3114 -685 4596 -99 1967 776 3386 2557 3700 4643 106 702 83
1445 -65 2138 -494 2305 -2329 4117 -4640 4581 -462 93 -935 131 -1409 114z
m425 -693 c151 -176 277 -317 281 -313 4 5 13 121 20 260 12 240 12 253 -6
273 -10 11 -33 22 -51 26 -25 5 -34 12 -34 26 0 18 6 19 123 13 154 -8 167
-10 167 -35 0 -15 -7 -20 -29 -20 -64 0 -64 -1 -86 -390 -8 -151 -18 -308 -21
-347 l-6 -73 -32 1 c-28 0 -56 29 -301 314 -148 172 -272 312 -276 310 -3 -3
-12 -117 -19 -255 -13 -248 -13 -251 7 -271 11 -11 39 -23 62 -26 33 -5 41
-10 41 -26 0 -19 -4 -20 -112 -14 -62 4 -134 7 -160 7 -44 0 -48 2 -48 25 0
22 4 25 33 25 68 0 68 0 93 408 13 202 23 375 24 385 0 12 8 17 28 17 24 0 63
-41 302 -320z m-830 270 c0 -13 -10 -22 -32 -28 -55 -14 -55 -21 -8 -253 50
-245 58 -382 26 -453 -46 -101 -158 -176 -294 -196 -117 -16 -208 9 -277 78
-68 68 -83 110 -145 411 -28 137 -54 237 -62 242 -7 5 -30 9 -50 9 -30 0 -38
4 -38 19 0 16 22 23 161 50 88 18 167 30 175 27 26 -10 14 -32 -23 -42 -33 -8
-38 -13 -41 -41 -4 -43 74 -431 103 -512 41 -112 125 -171 222 -156 120 18
183 89 183 207 0 29 -22 163 -49 297 -53 266 -58 277 -118 267 -23 -3 -33 0
-37 11 -4 9 -4 18 -1 21 5 5 260 59 288 61 11 1 17 -6 17 -19z m1917 -105 c81
-19 158 -37 170 -40 15 -4 20 -10 16 -25 -4 -17 -11 -19 -42 -15 -20 3 -42 2
-49 -3 -12 -8 -172 -667 -172 -707 0 -22 28 -44 69 -55 32 -8 38 -14 34 -31
-3 -11 -11 -18 -17 -16 -6 3 -89 22 -184 43 -156 35 -172 41 -170 59 3 16 10
19 44 17 25 -2 45 2 52 11 14 17 162 653 162 697 0 26 -6 34 -38 48 -26 12
-36 22 -34 35 2 9 5 17 7 17 3 0 71 -16 152 -35z m668 -200 c125 -54 128 -56
119 -78 -4 -12 -14 -15 -34 -11 -15 4 -30 2 -33 -2 -3 -5 -10 -117 -16 -249
-6 -132 -14 -267 -17 -300 l-5 -60 186 185 c211 209 251 256 234 276 -6 8 -18
14 -25 14 -16 0 -16 2 -8 24 3 9 11 16 18 16 6 0 65 -25 131 -54 97 -44 119
-57 117 -72 -5 -26 -7 -27 -32 -14 -13 7 -37 9 -56 5 -36 -6 -64 -30 -472
-407 -141 -130 -208 -185 -219 -181 -14 5 -15 53 -12 451 l4 444 -33 28 c-22
18 -30 32 -26 43 7 19 -9 24 179 -58z m-4360 -232 c3 -10 1 -19 -5 -21 -6 -2
-23 -14 -38 -27 l-27 -23 132 -259 c180 -353 205 -397 227 -401 10 -2 36 4 58
14 34 15 41 16 49 3 5 -8 9 -16 9 -19 0 -10 -331 -171 -340 -165 -18 11 -10
30 20 47 19 11 30 25 30 39 0 20 -297 615 -323 647 -11 14 -55 12 -88 -2 -11
-5 -19 -1 -23 10 -4 9 -5 18 -4 19 14 12 296 155 304 155 7 0 15 -8 19 -17z
m5500 -373 l225 -150 -51 -76 c-44 -66 -53 -74 -65 -62 -12 12 -12 19 1 46 9
18 14 40 10 51 -4 15 -102 90 -161 124 -10 6 -164 -211 -164 -230 0 -7 110
-81 157 -107 7 -4 24 4 38 18 24 24 55 26 55 5 0 -14 -119 -189 -128 -189 -23
0 -30 24 -15 46 8 13 13 30 10 38 -6 15 -149 116 -165 116 -7 0 -77 -100 -176
-252 l-17 -27 83 -55 c99 -67 135 -72 177 -27 22 24 30 27 43 17 15 -11 11
-20 -34 -89 -28 -42 -55 -77 -60 -77 -5 0 -112 70 -239 156 -203 138 -229 158
-216 171 11 12 19 12 35 4 58 -31 59 -30 263 276 106 158 195 298 197 311 3
17 -5 33 -28 57 -29 30 -34 55 -9 55 5 0 111 -68 234 -150z m-6146 -57 c45
-60 48 -69 34 -80 -13 -10 -20 -8 -39 12 -35 38 -66 32 -149 -27 -41 -29 -74
-57 -74 -62 -1 -9 158 -226 165 -226 12 0 153 113 158 127 4 9 -1 27 -9 40
-16 24 -13 43 8 43 7 0 42 -40 79 -89 57 -76 65 -91 52 -102 -12 -10 -19 -8
-37 10 -13 11 -30 21 -38 21 -8 0 -48 -26 -91 -58 l-76 -58 90 -119 c49 -66
96 -128 103 -139 13 -17 18 -15 97 46 95 73 109 98 83 151 -17 36 -14 57 8 57
12 -1 103 -118 112 -143 3 -9 -318 -257 -430 -332 -10 -7 -19 -5 -31 7 -15 15
-14 17 10 33 52 34 42 53 -180 350 -143 190 -214 277 -230 281 -15 4 -37 -1
-58 -14 -30 -18 -36 -19 -47 -6 -10 12 -9 18 2 28 27 26 422 316 429 316 5 0
31 -30 59 -67z m3431 -234 c907 -79 1755 -433 2445 -1023 195 -167 445 -429
607 -636 550 -706 875 -1592 906 -2472 34 -958 -204 -1813 -724 -2593 -607
-913 -1539 -1562 -2604 -1814 -788 -187 -1608 -149 -2380 109 -1290 430 -2314
1459 -2739 2750 -364 1103 -267 2322 264 3347 812 1565 2477 2484 4225 2332z
m3462 -287 c80 -82 156 -169 169 -193 54 -104 17 -222 -89 -282 -43 -24 -68
-30 -137 -35 -47 -2 -85 -8 -85 -11 0 -3 -7 -69 -15 -146 -22 -207 -20 -272
10 -330 24 -49 25 -65 1 -65 -20 0 -135 125 -151 164 -20 48 -18 126 9 291
l23 140 -36 38 -35 37 -94 -92 c-51 -51 -95 -103 -99 -116 -4 -17 3 -34 26
-63 31 -38 33 -59 8 -59 -7 0 -70 58 -141 129 -109 109 -127 132 -117 145 11
13 17 12 48 -10 25 -17 40 -21 52 -14 9 5 127 120 264 257 163 164 247 256
247 270 0 11 -9 32 -21 47 -21 26 -19 46 5 46 7 0 78 -67 158 -148z m-7633
-116 c55 -56 62 -67 51 -80 -11 -15 -16 -14 -45 4 -65 40 -153 16 -195 -52
-24 -40 -25 -71 -3 -109 25 -42 60 -53 156 -45 245 19 273 19 324 2 149 -49
216 -205 151 -347 -30 -65 -121 -159 -185 -190 l-43 -21 -48 40 c-26 22 -63
56 -82 76 -31 33 -33 38 -18 52 14 14 19 14 56 -11 80 -53 164 -40 220 33 21
27 27 47 27 84 0 44 -4 53 -37 83 -45 41 -98 51 -196 36 -124 -19 -240 -14
-297 13 -58 27 -108 79 -125 132 -15 45 -8 130 15 174 32 62 166 190 199 190
6 0 40 -29 75 -64z m-680 -625 c10 -6 11 -13 2 -29 -16 -31 -13 -59 9 -80 10
-10 161 -105 335 -212 173 -107 315 -198 315 -201 0 -4 -8 -16 -17 -28 -15
-17 -90 -37 -418 -111 -220 -50 -404 -91 -408 -93 -17 -5 420 -267 447 -267
26 0 49 17 76 58 13 20 17 21 32 10 15 -12 9 -25 -65 -146 -54 -87 -87 -131
-97 -129 -9 2 -14 11 -12 22 14 83 15 81 -15 106 -16 13 -167 109 -336 213
-169 104 -307 192 -307 196 0 3 8 15 18 26 14 14 114 40 430 109 226 49 408
92 404 96 -25 24 -422 261 -444 266 -23 5 -34 -1 -61 -29 -27 -29 -36 -33 -49
-24 -14 10 -6 27 60 134 41 67 78 122 81 122 3 0 12 -4 20 -9z m8978 -63 c53
-25 120 -98 156 -171 43 -88 42 -91 -45 -153 -74 -52 -78 -53 -88 -34 -9 18
-6 27 19 56 73 83 11 224 -99 224 -65 0 -110 -84 -110 -206 0 -151 -44 -273
-120 -333 -145 -115 -328 -51 -425 148 -15 30 -29 71 -32 90 -4 35 -2 37 81
94 46 31 89 57 94 57 5 0 13 -7 16 -16 4 -11 -7 -31 -33 -59 -59 -64 -65 -121
-21 -193 42 -68 116 -89 178 -52 48 30 69 86 81 220 16 183 53 268 137 320 67
42 133 45 211 8z m499 -792 c42 -85 73 -160 69 -165 -11 -19 -30 -12 -47 19
-10 18 -25 30 -38 30 -31 0 -646 -304 -658 -325 -10 -19 -3 -55 17 -94 7 -11
10 -21 7 -21 -2 0 -11 -3 -20 -6 -11 -4 -34 32 -96 156 -45 89 -79 169 -76
176 9 23 30 16 48 -16 12 -21 25 -30 42 -30 13 0 165 71 338 158 l313 157 -1
50 c-1 42 8 64 24 65 2 0 37 -69 78 -154z m-9824 -427 c123 -25 258 -117 318
-217 79 -129 80 -299 3 -461 -93 -195 -292 -289 -498 -236 -166 44 -299 174
-335 327 -34 148 27 360 138 475 100 104 228 142 374 112z m10165 -450 c57
-189 103 -345 103 -347 0 -5 -148 -72 -159 -72 -23 0 -11 47 14 58 47 22 51
50 20 161 -16 58 -33 98 -39 96 -6 -2 -144 -43 -306 -90 -162 -47 -315 -93
-338 -102 l-44 -15 4 -61 c2 -50 0 -62 -13 -65 -12 -2 -27 36 -67 175 -29 98
-52 181 -52 186 0 4 8 7 18 7 11 0 25 -14 35 -35 12 -26 23 -35 42 -35 19 0
672 186 682 195 8 6 -60 194 -74 208 -10 8 -36 17 -58 19 -32 2 -40 7 -40 23
0 17 10 22 75 31 41 6 80 10 85 9 6 -1 56 -156 112 -346z m-10799 -634 c2 -21
13 -52 24 -67 21 -30 270 -221 345 -264 35 -21 68 -28 175 -40 73 -7 141 -14
150 -14 28 0 54 33 62 78 7 45 7 45 28 37 12 -5 11 -35 -3 -188 -10 -100 -18
-183 -18 -184 -1 -2 -10 -3 -21 -3 -16 0 -20 7 -20 35 0 51 -24 61 -175 74
-155 14 -141 18 -378 -100 -193 -96 -233 -125 -243 -174 -4 -25 -11 -35 -25
-35 -23 0 -23 7 -7 188 11 126 12 132 34 132 15 0 21 -6 20 -17 -1 -13 5 -17
20 -16 25 3 344 145 344 154 0 12 -292 199 -310 199 -10 0 -22 -9 -25 -20 -4
-11 -15 -20 -27 -20 -19 0 -20 4 -15 48 3 26 9 85 12 132 8 104 10 112 32 108
13 -2 19 -15 21 -43z m10952 28 c0 -5 7 -69 15 -143 19 -174 19 -170 -5 -170
-12 0 -20 7 -20 16 0 12 -7 15 -22 12 -29 -6 -319 -211 -310 -219 19 -16 302
-130 327 -132 24 -2 31 2 33 21 2 13 10 22 22 22 19 0 24 -23 35 -160 3 -41 8
-85 11 -97 4 -19 0 -23 -21 -23 -20 0 -25 5 -25 25 0 46 -55 91 -193 159 -262
127 -268 128 -475 105 -117 -13 -132 -23 -132 -91 0 -40 -3 -48 -19 -48 -16 0
-19 14 -29 113 -27 265 -27 267 -3 267 15 0 21 -6 21 -23 0 -13 6 -32 14 -42
12 -17 23 -18 125 -11 188 11 194 13 370 146 189 142 241 195 241 245 0 28 4
35 20 35 11 0 20 -3 20 -7z m-10260 -2216 c50 -26 90 -90 90 -144 0 -74 -53
-141 -128 -164 -115 -34 -233 84 -202 201 30 110 141 160 240 107z m9750 -19
c74 -38 110 -114 89 -190 -37 -141 -214 -174 -302 -57 -39 53 -39 144 0 198
24 33 98 71 138 71 17 0 51 -10 75 -22z m-829 -1692 l294 -244 31 36 31 36 46
-38 47 -38 -23 -28 c-12 -16 -141 -172 -287 -348 -208 -251 -268 -318 -280
-311 -8 5 -30 22 -49 38 l-34 30 53 61 c28 33 50 66 47 74 -3 7 -51 50 -106
95 -76 60 -109 81 -131 81 -17 0 -30 3 -30 8 0 7 65 90 95 121 11 12 33 -2
141 -92 l128 -107 23 22 c13 12 23 26 22 32 0 6 -50 52 -110 101 -156 127
-148 112 -93 178 l46 56 125 -104 c68 -58 128 -105 133 -105 9 0 70 70 70 81
0 7 -475 402 -489 407 -4 1 -92 -99 -195 -223 -103 -124 -191 -225 -195 -225
-12 0 -86 60 -86 70 0 8 472 580 479 580 2 0 136 -110 297 -244z m-7973 185
c100 -51 156 -129 177 -245 12 -71 16 -79 75 -145 35 -39 65 -71 68 -71 16 0
52 46 52 66 0 42 17 34 79 -38 60 -68 62 -72 44 -88 -10 -10 -128 -113 -263
-230 l-244 -212 -48 53 c-26 30 -47 59 -47 64 0 6 24 30 52 54 29 24 69 59 90
78 l38 34 -63 74 c-56 65 -67 74 -99 74 -99 2 -216 85 -260 183 -30 68 -32
176 -5 228 35 67 95 118 166 141 42 14 142 3 188 -20z m-406 -429 l58 -67 -71
-65 -71 -65 190 -219 191 -219 -42 -38 c-23 -21 -45 -38 -48 -39 -10 0 -484
550 -480 558 3 4 47 44 98 90 70 62 93 89 93 107 0 40 21 28 82 -43z m6676
-941 l57 -118 60 28 c33 16 65 29 71 29 5 0 20 -20 32 -45 l22 -45 -65 -32
c-36 -18 -65 -36 -65 -41 0 -4 15 -41 34 -81 l33 -73 -68 -34 c-38 -18 -71
-31 -73 -28 -2 2 -33 65 -69 139 -149 312 -148 310 -173 316 -13 3 -24 11 -24
18 0 10 138 82 163 85 5 1 34 -52 65 -118z m-4752 43 c54 -25 101 -48 103 -50
11 -11 -94 -160 -161 -229 -43 -44 -78 -82 -78 -85 0 -3 17 -42 39 -85 45 -94
75 -181 67 -194 -7 -10 -118 -73 -121 -68 -1 1 -10 38 -20 82 -16 74 -62 205
-71 205 -3 0 -30 -13 -62 -29 -60 -30 -153 -61 -184 -61 -17 0 -52 63 -46 82
2 5 29 20 61 33 99 40 168 87 252 170 100 98 143 177 126 226 -11 33 -14 49
-7 49 1 0 48 -21 102 -46z m4484 -124 c13 -27 22 -52 19 -54 -2 -2 -24 -14
-48 -26 l-44 -22 49 -27 c214 -116 103 -440 -157 -459 -111 -8 -197 35 -241
122 -22 43 -29 119 -15 169 l8 28 -40 -21 c-22 -11 -44 -20 -49 -20 -9 0 -55
100 -50 106 2 1 46 23 98 48 52 26 95 52 95 59 0 6 -12 18 -27 25 -16 7 -28
17 -28 21 0 8 153 81 170 81 4 0 13 -13 20 -30 7 -16 16 -30 20 -30 4 0 45 18
91 39 46 22 89 40 95 40 6 1 21 -21 34 -49z m-4064 -49 c-2 -3 -92 -199 -201
-436 -109 -236 -198 -431 -200 -433 -2 -2 -115 47 -123 54 -2 1 51 120 117
265 67 144 120 263 118 264 -1 1 -32 16 -69 33 -38 17 -68 36 -68 42 0 9 36
87 45 98 1 1 34 -12 74 -29 39 -18 73 -30 75 -28 2 2 20 42 41 88 28 62 36 92
32 116 -3 18 -3 35 -1 38 7 7 164 -64 160 -72z m129 -53 c46 -23 65 -38 62
-48 -4 -14 -387 -850 -393 -859 -2 -2 -35 12 -73 30 l-71 34 202 438 c110 240
202 437 204 437 2 0 33 -15 69 -32z m4488 -410 c37 -79 67 -147 67 -151 0 -8
-130 -71 -135 -65 -1 2 -22 41 -45 88 -23 47 -44 87 -46 89 -1 1 -130 -58
-285 -133 -156 -75 -286 -136 -291 -136 -8 0 -62 100 -56 105 5 4 712 344 718
344 3 1 36 -63 73 -141z m-2523 -53 l0 -135 35 0 35 0 0 135 0 136 78 -3 77
-3 0 -480 0 -480 -77 -3 -78 -3 0 291 0 290 -35 0 -35 0 0 -290 0 -291 -72 3
-73 3 -3 93 -3 92 -259 0 -260 0 0 348 c0 291 -2 351 -15 368 -8 10 -15 22
-15 27 0 4 97 7 215 7 l215 0 0 -60 0 -60 -120 0 -120 0 0 -255 0 -255 180 0
180 0 0 304 c0 257 -2 307 -15 320 -30 30 -17 36 75 36 l90 0 0 -135z"/>
<path d="M5880 9541 c-690 -503 -1759 -832 -2823 -868 l-188 -6 4 -1311 c4
-1369 3 -1317 47 -1669 12 -93 14 -98 34 -93 62 15 545 91 766 121 597 80
1107 122 1745 145 1113 39 2405 -53 3490 -250 55 -10 103 -15 106 -11 7 7 22
115 46 331 14 123 17 338 20 1441 l4 1296 -188 6 c-705 24 -1428 178 -2033
433 -302 127 -628 309 -843 471 -31 23 -63 43 -70 42 -6 -1 -59 -35 -117 -78z
m368 -875 c369 -80 683 -317 854 -644 162 -309 187 -678 68 -1003 -248 -681
-1046 -1010 -1696 -700 -579 277 -857 920 -658 1521 112 335 375 617 705 753
91 38 208 71 304 87 85 13 336 5 423 -14z m1982 -625 c0 -5 -7 -25 -15 -44
-21 -51 -19 -125 4 -163 10 -17 71 -77 136 -134 126 -111 151 -147 141 -203
-8 -43 -71 -142 -133 -208 l-46 -49 55 0 c30 0 59 -5 65 -11 14 -14 -21 -128
-45 -146 -12 -10 -76 -13 -242 -13 -166 0 -230 3 -241 13 -19 15 -54 131 -45
146 4 6 38 11 82 11 l74 0 0 31 c0 33 -9 44 -163 185 -77 71 -83 93 -43 172
25 49 101 142 117 142 5 0 9 -22 9 -49 0 -64 28 -102 130 -173 62 -43 110 -89
120 -115 12 -30 -4 -83 -45 -143 l-34 -51 46 3 c45 3 47 4 79 63 47 85 46 131
-3 186 -21 23 -72 68 -115 100 -89 68 -118 105 -125 158 -8 58 20 105 123 209
86 85 114 106 114 83z m-4479 -480 l29 -30 -2 -288 -3 -288 -162 -3 -163 -2 0
313 c0 173 3 317 7 320 3 4 64 7 135 7 l130 0 29 -29z m427 -294 l2 -317 -162
2 -163 3 -3 288 -2 288 29 30 30 30 133 -3 133 -3 3 -318z m-808 -82 l0 -295
185 0 185 0 10 -24 c5 -14 21 -32 35 -42 34 -22 79 -4 94 37 l10 29 185 0 186
0 0 296 0 295 38 -3 37 -3 0 -330 0 -330 -189 -3 -189 -2 -38 -35 c-65 -59
-161 -57 -212 5 l-25 30 -194 2 -193 3 -3 320 c-1 176 0 325 3 332 2 7 20 13
40 13 l35 0 0 -295z m4920 -202 c-1 -60 -77 -503 -89 -517 -17 -20 -84 -21
-101 -2 -10 13 -89 478 -90 529 0 15 13 17 140 17 l140 0 0 -27z"/>
<path d="M5842 8060 c-177 -47 -332 -171 -409 -330 -52 -108 -67 -172 -67
-285 0 -176 60 -322 184 -445 312 -312 819 -228 1019 167 42 83 61 169 61 275
0 109 -13 174 -55 263 -131 284 -437 432 -733 355z"/>
<path d="M5630 5679 c-433 -8 -709 -23 -1170 -65 -551 -49 -1490 -184 -1490
-214 0 -42 99 -396 158 -565 134 -386 289 -699 517 -1040 86 -128 268 -371
309 -412 1 -2 463 457 1025 1019 l1022 1023 1019 -1025 c560 -564 1020 -1023
1022 -1020 379 442 678 985 866 1570 52 164 127 449 119 456 -14 14 -543 98
-897 144 -616 78 -1154 118 -1715 126 -187 2 -358 6 -380 7 -22 1 -204 -1
-405 -4z"/>
<path d="M5227 3642 l-768 -768 80 -67 c338 -283 749 -548 1213 -782 l247
-125 218 109 c466 234 874 494 1208 770 55 46 102 87 104 93 3 9 -1517 1538
-1529 1538 -3 0 -351 -346 -773 -768z m203 -648 l0 -224 29 0 c29 0 49 -15 37
-27 -4 -5 -185 -7 -239 -4 -23 2 4 27 34 31 l34 5 3 173 c1 94 -1 172 -5 172
-5 -1 -19 -7 -33 -15 -32 -18 -50 -19 -50 -1 0 16 168 128 181 120 5 -3 9
-106 9 -230z m411 209 c66 -39 63 -132 -6 -177 l-26 -17 33 -22 c45 -30 70
-82 64 -131 -9 -80 -73 -126 -171 -126 -76 0 -124 24 -149 74 -26 54 -15 101
38 151 l42 40 -33 33 c-27 27 -33 40 -33 77 0 35 6 49 31 74 17 17 43 34 57
37 15 3 32 7 37 10 19 7 88 -7 116 -23z m385 16 c89 -23 114 -111 50 -175
l-34 -34 44 -44 c40 -40 44 -48 44 -94 0 -87 -64 -142 -165 -142 -67 0 -114
18 -143 55 -43 55 -20 152 46 190 l29 18 -36 32 c-31 29 -36 40 -36 79 0 54
37 99 94 114 50 14 56 14 107 1z m471 -51 c-7 -59 -24 -85 -33 -51 -7 25 -46
36 -109 31 -37 -3 -40 -5 -40 -32 0 -26 5 -30 50 -44 66 -21 131 -84 140 -135
15 -77 -25 -150 -98 -186 -52 -25 -158 -29 -176 -7 -16 19 -10 118 7 124 7 2
12 -6 12 -20 0 -43 27 -68 74 -68 74 0 114 69 82 143 -16 40 -59 71 -119 88
l-37 10 6 82 c10 121 5 117 136 117 l111 0 -6 -52z"/>
<path d="M5696 3158 c-9 -12 -16 -31 -16 -41 0 -22 52 -77 74 -77 22 0 46 40
46 76 0 59 -72 88 -104 42z"/>
<path d="M5694 2939 c-58 -61 -29 -162 47 -162 23 0 39 8 56 27 39 46 25 99
-37 140 l-38 25 -28 -30z"/>
<path d="M6126 3165 c-25 -25 -20 -72 10 -100 31 -29 47 -31 68 -9 43 43 25
117 -31 122 -18 2 -37 -3 -47 -13z"/>
<path d="M6110 2928 c-23 -37 -26 -95 -6 -120 32 -42 103 -42 125 1 21 39 13
81 -23 117 -43 43 -70 44 -96 2z"/>
<path d="M9675 9820 l-129 -130 34 -36 c45 -46 65 -56 111 -56 48 1 84 20 130
69 55 57 72 98 67 155 -5 46 -46 116 -74 125 -5 2 -68 -55 -139 -127z"/>
<path d="M939 7824 c-73 -22 -139 -72 -171 -130 -115 -207 15 -392 308 -435
177 -27 329 52 384 198 26 70 25 117 -4 178 -28 61 -80 109 -161 146 -123 58
-257 74 -356 43z"/>
<path d="M2055 3101 c-74 -18 -120 -78 -120 -157 0 -45 4 -57 30 -84 16 -17
46 -36 67 -42 108 -32 222 83 189 191 -12 43 -61 91 -91 91 -10 0 -24 2 -32 4
-7 2 -26 1 -43 -3z"/>
<path d="M2277 2748 l-29 -28 47 -55 47 -55 29 23 c15 12 28 27 28 32 0 6 -21
33 -47 60 l-47 51 -28 -28z"/>
<path d="M7969 1550 c-68 -19 -99 -59 -99 -131 0 -84 71 -147 153 -136 75 10
127 94 106 171 -18 65 -98 112 -160 96z"/>
</g>
</svg>
