<svg xmlns="http://www.w3.org/2000/svg"  viewBox="0 0 100 100" width="100px" height="100px" baseProfile="basic"><path fill="#00a6a6" d="M43.337,54.522l-12.63-10.826c0,0,1.804-2.707,4.511-5.413c2.707-2.707,4.937-3.342,8.12-5.413 C49.672,28.748,55.13,11,63.25,11L45.56,49.672L43.337,54.522z"/><path fill="#472b29" d="M43.337,55.522c-0.236,0-0.468-0.084-0.65-0.241L30.056,44.455 c-0.385-0.329-0.462-0.893-0.182-1.314c0.076-0.114,1.892-2.821,4.637-5.565c1.9-1.901,3.607-2.85,5.415-3.854 c0.9-0.5,1.831-1.017,2.865-1.69c2.383-1.55,4.727-5.332,7.208-9.335C53.867,16.454,57.867,10,63.25,10 c0.341,0,0.657,0.173,0.842,0.459c0.184,0.287,0.209,0.647,0.067,0.957L44.246,54.938c-0.131,0.286-0.388,0.493-0.694,0.56 C43.48,55.514,43.408,55.522,43.337,55.522z M32.049,43.53l10.932,9.37l18.57-40.588c-3.567,1.298-6.755,6.442-9.852,11.438 c-2.603,4.199-5.061,8.165-7.817,9.958c-1.093,0.711-2.055,1.246-2.984,1.762c-1.755,0.975-3.27,1.816-4.973,3.52 C34.146,40.769,32.755,42.565,32.049,43.53z"/><polygon fill="#78ccd3" points="24.875,65.125 7,52.875 30.707,43.696 43.837,53.556 30.707,63.663"/><path fill="#472b29" d="M24.875,66.125c-0.2,0-0.397-0.06-0.565-0.175L6.435,53.7c-0.306-0.209-0.471-0.572-0.428-0.94 c0.043-0.369,0.286-0.683,0.632-0.817l23.706-9.179c0.322-0.124,0.685-0.074,0.962,0.133l13.131,9.861 c0.25,0.188,0.397,0.481,0.399,0.794s-0.143,0.608-0.39,0.798L31.316,64.455c-0.109,0.083-0.234,0.144-0.367,0.177l-5.831,1.462 C25.038,66.115,24.956,66.125,24.875,66.125z M9.13,53.123l15.938,10.923l5.192-1.302l11.924-9.177L30.55,44.829L9.13,53.123z"/><path fill="#f5905f" d="M91.375,73.25c-1.228-4.297-3.802-12.846-7.02-22.256v16.652 C88.326,70.459,91.375,73.25,91.375,73.25z"/><path fill="#f69d4a" d="M84.355,67.647V50.994c-2.446-7.154-5.264-14.803-8.145-21.463v33.441 C78.935,64.065,81.83,65.859,84.355,67.647z"/><path fill="#f8a936" d="M76.21,29.531c-2.747-6.351-5.551-11.8-8.145-15.057v48.417c0.801-0.441,1.655-0.755,2.587-0.903 c1.609-0.254,3.536,0.172,5.558,0.983V29.531z"/><path fill="#f9b621" d="M63.5,11.25c-1.289,0-2.665,1.268-4.089,3.345v58.734c2.926-4.46,5.316-8.601,8.654-10.438V14.474 C66.438,12.433,64.895,11.25,63.5,11.25z"/><path fill="#e3a12e" d="M50.757,32.987v50.462c0.767-0.594,1.554-1.267,2.348-2.052c2.533-2.505,4.519-5.344,6.306-8.067 V14.595C56.625,18.658,53.651,25.854,50.757,32.987z"/><path fill="#cd8c3b" d="M42.638,50.849c-0.174,0.268-0.354,0.531-0.536,0.792v27.447c1.136,4.392,1.148,8.162,1.148,8.162 s3.435-0.649,7.507-3.801V32.987C47.883,40.07,45.088,47.077,42.638,50.849z"/><path fill="#b77748" d="M26.75,64.571v0.731c1.822,0.019,4.902,0.352,7.815,2.1c4.264,2.558,6.432,7.416,7.537,11.686 V51.641C37.323,58.495,29.982,62.873,26.75,64.571z"/><path fill="#472b29" d="M43,88c-0.23,0-0.457-0.08-0.638-0.23c-0.229-0.189-0.361-0.471-0.362-0.767	c0-0.141-0.141-14.159-8.199-18.993c-4.158-2.495-8.744-1.9-8.789-1.894c-0.48,0.066-0.961-0.238-1.099-0.717	c-0.136-0.479,0.102-0.986,0.557-1.188c0.111-0.049,11.141-5.013,17.079-14.156c2.281-3.511,4.873-9.905,7.618-16.675	C55.064,18.833,58.955,10,63.25,10c10.61,0,27.002,56.305,28.837,62.725c0.122,0.431-0.056,0.89-0.436,1.125	c-0.383,0.235-0.872,0.189-1.202-0.113c-3.667-3.357-14.399-11.88-19.891-11.01c-3.902,0.617-6.5,4.633-9.508,9.283	c-2.052,3.172-4.378,6.767-7.493,9.848c-5.166,5.108-10.164,6.086-10.375,6.125C43.122,87.995,43.062,88,43,88z M28.775,64.215	c1.787,0.246,3.956,0.821,6.055,2.08c7.568,4.54,8.891,15.576,9.121,19.396c1.657-0.564,4.901-1.993,8.2-5.255	c2.961-2.928,5.224-6.426,7.221-9.512c3.268-5.052,6.09-9.415,10.874-10.172c5.679-0.903,14.604,5.702,18.981,9.299	C82.231,46.33,69.801,12,63.25,12c-3.258,0-8.443,12.791-12.229,22.131c-2.782,6.861-5.409,13.341-7.794,17.013	C39.056,57.565,32.702,61.942,28.775,64.215z"/><g><path fill="#fff" d="M57.765,25.75c1.254-2.858,2.54-5.592,3.697-7.625"/><path fill="#472b29" d="M57.765,26.25c-0.067,0-0.136-0.014-0.201-0.042c-0.253-0.111-0.367-0.406-0.257-0.659 c1.458-3.323,2.675-5.833,3.721-7.671c0.136-0.24,0.441-0.325,0.682-0.188c0.24,0.136,0.324,0.442,0.188,0.682 c-1.028,1.809-2.23,4.288-3.674,7.579C58.141,26.138,57.957,26.25,57.765,26.25z"/></g><g><path fill="#fff" d="M56.213,29.375c0.139-0.332,0.28-0.666,0.421-1"/><path fill="#472b29" d="M56.213,29.875c-0.064,0-0.131-0.013-0.193-0.039c-0.255-0.107-0.375-0.4-0.268-0.655l0.423-1.001 c0.107-0.255,0.4-0.372,0.655-0.266c0.254,0.108,0.373,0.401,0.265,0.655l-0.421,0.999C56.594,29.76,56.408,29.875,56.213,29.875z"/></g><path fill="#472b29" d="M46.432,81.686c-0.069,0-0.139-0.014-0.204-0.043c-0.152-0.068-0.261-0.208-0.289-0.373	c-0.974-5.706-3.469-13.307-9.822-17.119c-0.249-0.149-0.499-0.291-0.748-0.424c-0.151-0.081-0.25-0.232-0.264-0.403	c-0.013-0.17,0.063-0.336,0.199-0.438c4.226-3.158,7.597-6.65,10.02-10.38c2.516-3.874,5.186-10.461,8.014-17.436	c0.403-0.997,0.824-2.014,1.282-3.123l0.419-1.013c0.104-0.255,0.397-0.374,0.652-0.271c0.256,0.105,0.377,0.398,0.271,0.653	l-0.418,1.013c-0.458,1.107-0.878,2.123-1.281,3.117c-2.846,7.02-5.533,13.65-8.102,17.604c-2.368,3.647-5.612,7.067-9.648,10.173	c0.039,0.023,0.078,0.046,0.117,0.07c6.401,3.84,9.062,11.245,10.16,17.059c1.012-0.693,1.984-1.5,2.9-2.406	c1.135-1.122,2.248-2.428,3.405-3.994c0.166-0.222,0.479-0.268,0.699-0.104c0.223,0.164,0.27,0.477,0.105,0.699	c-1.188,1.607-2.335,2.952-3.507,4.11c-1.154,1.142-2.397,2.135-3.695,2.952C46.617,81.66,46.524,81.686,46.432,81.686z"/><g><path fill="#fff" d="M58.186,67.25c-0.445,0.671-0.888,1.355-1.334,2.044"/><path fill="#472b29" d="M56.853,69.794c-0.094,0-0.188-0.026-0.271-0.08c-0.231-0.15-0.298-0.459-0.148-0.691 c0.446-0.691,0.89-1.376,1.338-2.049c0.152-0.231,0.463-0.292,0.693-0.14c0.229,0.153,0.292,0.463,0.139,0.693 c-0.444,0.669-0.886,1.352-1.33,2.039C57.177,69.713,57.016,69.794,56.853,69.794z"/></g><path fill="#472b29" d="M59.651,65.625c-0.102,0-0.204-0.031-0.293-0.095c-0.224-0.162-0.274-0.475-0.112-0.698	c2.378-3.286,5.479-6.751,10.453-7.537c3.479-0.555,7.833,0.723,13.106,3.852c-2.395-7.483-4.786-14.379-7.116-20.514	c-1.432-3.77-2.826-7.213-4.146-10.234c-0.11-0.253,0.005-0.548,0.258-0.658c0.254-0.111,0.548,0.004,0.658,0.258	c1.327,3.036,2.729,6.495,4.166,10.279c2.468,6.5,5.005,13.849,7.541,21.843c0.063,0.2-0.005,0.418-0.171,0.547	s-0.395,0.14-0.571,0.028c-5.565-3.497-10.081-4.964-13.568-4.413c-4.612,0.729-7.542,4.017-9.799,7.136	C59.959,65.553,59.806,65.625,59.651,65.625z"/><g><line x1="14.875" x2="25.375" y1="53.25" y2="60.625" fill="#fff"/><path fill="#472b29" d="M25.375,61.125c-0.1,0-0.2-0.029-0.287-0.091l-10.5-7.375c-0.227-0.159-0.281-0.471-0.122-0.697 s0.472-0.28,0.696-0.122l10.5,7.375c0.227,0.159,0.281,0.471,0.122,0.697C25.687,61.051,25.532,61.125,25.375,61.125z"/></g></svg>